<svg xmlns="http://www.w3.org/2000/svg" xmlns:xlink="http://www.w3.org/1999/xlink" version="1.1" viewBox="0 0 24 24" style="width: 200px; height: 200px; transform-origin: 50% 50%; transform: scaleX(1) scaleY(1) rotate(0deg);" xml:space="preserve" preserveAspectRatio="xMidYMid meet"><style type="text/css">
	.st0{opacity:0.2;fill:none;stroke:#000000;stroke-width:0.05;stroke-miterlimit:10;}
</style><g id="grid_system" fill="#FFFFFF" style="fill:#FFFFFF;stroke:none" stroke="none"/><g id="_icons" fill="#FFFFFF" style="fill:#FFFFFF;stroke:none" stroke="none"><g fill="#FFFFFF" style="fill:#FFFFFF;stroke:none" stroke="none"><path d="M8,14H7c-0.55225,0-1,0.44775-1,1s0.44775,1,1,1h1c0.55225,0,1-0.44775,1-1S8.55225,14,8,14z" fill="#FFFFFF" style="fill:#FFFFFF;stroke:none" stroke="none"/><path d="M18.32715,17.04346v-0.88623c0-0.55225-0.44775-1-1-1s-1,0.44775-1,1v1.30029c0,0.26514,0.10547,0.51953,0.29297,0.70703    l1,1c0.19531,0.19531,0.45117,0.29297,0.70703,0.29297s0.51172-0.09766,0.70703-0.29297    c0.39062-0.39062,0.39062-1.02344,0-1.41406L18.32715,17.04346z" fill="#FFFFFF" style="fill:#FFFFFF;stroke:none" stroke="none"/><path d="M22.4082,15.021c-0.17963-0.34778-0.38654-0.66034-0.58649-0.90411C21.93066,13.40509,22,12.6944,22,12    c0-1.45898-0.23486-2.92529-0.69971-4.36133c-0.49072-1.49658-1.83887-2.65234-3.51709-3.01562    C14,3.7959,9.99805,3.79639,6.21875,4.62256C4.53857,4.98633,3.19043,6.14209,2.69824,7.64258C2.23486,9.07471,2,10.54102,2,12    c0,1.4585,0.23486,2.9248,0.69971,4.36133c0.49072,1.49658,1.83887,2.65234,3.5166,3.01562    c1.87891,0.41113,3.79004,0.61816,5.69971,0.61816c0.22791,0,0.45569-0.01215,0.68353-0.01807    c0.08636,0.16577,0.17749,0.33105,0.28815,0.49707c0.00342,0.00586,0.00684,0.01123,0.01074,0.0166    c0.00146,0.00195,0.00293,0.00439,0.00488,0.00684c0.25195,0.39795,0.56494,0.7627,0.92188,1.08154    c0.04004,0.04004,0.11084,0.11084,0.21484,0.18164C15.00244,22.56055,16.22803,23,17.5,23    c1.33838,0,2.61768-0.47998,3.58936-1.33984C22.30371,20.62354,23,19.10693,23,17.5C23,16.63916,22.79639,15.78418,22.4082,15.021    z M6.64355,6.57715C8.39551,6.19434,10.19775,6,12,6s3.60449,0.19434,5.3584,0.57764    c0.98877,0.21387,1.771,0.85938,2.04004,1.68018C19.47821,8.50409,19.54413,8.75195,19.60809,9H4.39172    C4.45538,8.75317,4.52087,8.50647,4.6001,8.26172C4.87061,7.43701,5.65283,6.7915,6.64355,6.57715z M6.6416,17.42236    c-0.98877-0.21387-1.771-0.85938-2.04004-1.68018C4.20215,14.5083,4,13.24902,4,12c0-0.33289,0.01666-0.66644,0.04523-1h15.90948    C19.98334,11.33356,20,11.66711,20,12c0,0.19678-0.00537,0.39502-0.01562,0.59473c-0.04419-0.02252-0.09186-0.0365-0.1366-0.05774    c-0.0683-0.03198-0.138-0.05884-0.20758-0.08783c-0.18384-0.07758-0.36981-0.1463-0.56079-0.20251    c-0.05481-0.01605-0.10968-0.02966-0.16492-0.04395c-0.20526-0.05347-0.41205-0.09534-0.62213-0.12476    c-0.05347-0.00751-0.10657-0.01428-0.16022-0.0202c-0.20898-0.02307-0.41772-0.03387-0.62805-0.03351    c-0.05951-0.00006-0.11841-0.00073-0.17786,0.0011c-0.20099,0.00665-0.40015,0.02594-0.59937,0.05396    c-0.06781,0.00934-0.13544,0.01617-0.20282,0.02802c-0.18817,0.03345-0.37268,0.08038-0.55658,0.13287    c-0.07318,0.02075-0.14709,0.0368-0.21936,0.06055c-0.18243,0.06036-0.35876,0.13593-0.53394,0.21539    c-0.06561,0.02966-0.13373,0.05267-0.19824,0.08502c-0.2345,0.1181-0.46173,0.25134-0.67706,0.40472    c-0.28125,0.20068-0.51074,0.39697-0.69873,0.59717c-0.00012,0.00012-0.00024,0.00024-0.00037,0.00037    c-0.00006,0.00006-0.00006,0.00006-0.00012,0.00012c-0.10889,0.09375-0.20166,0.19434-0.28857,0.29395    C12.47998,14.88232,12,16.16162,12,17.5c0,0.16699,0.00732,0.33203,0.02148,0.49463    C10.21289,18.01855,8.4165,17.81104,6.6416,17.42236z M19.77734,20.15088c-1.21729,1.07666-3.2583,1.10059-4.49707,0.04004    c-0.02441-0.021-0.0498-0.04102-0.07617-0.05957c-0.00146-0.00098-0.00293-0.00293-0.00537-0.00488    c-0.25781-0.23193-0.45801-0.46387-0.61182-0.7085c-0.0083-0.0127-0.0166-0.02588-0.02539-0.03857    c-0.00342-0.00488-0.00684-0.00977-0.01025-0.01465c-0.14795-0.22266-0.25684-0.43457-0.33105-0.64697    c-0.00879-0.03516-0.01953-0.07031-0.03223-0.10449C14.06348,18.27588,14,17.90088,14,17.5    c0-0.84961,0.30176-1.65869,0.854-2.28271c0.02832-0.03271,0.0542-0.06885,0.08984-0.09766    c0.04736-0.03711,0.09131-0.07812,0.13135-0.12305c0.09766-0.1084,0.24072-0.23096,0.4248-0.3623    c1.12842-0.8042,2.72168-0.84277,3.91504-0.05957c0.21973,0.13916,0.42041,0.31055,0.59717,0.50928    c0.03076,0.03467,0.06396,0.06738,0.09961,0.09717c0.03906,0.04639,0.0957,0.11426,0.10254,0.12207    c0.15332,0.18262,0.29346,0.39648,0.41406,0.62988C20.87158,16.41113,21,16.95264,21,17.5    C21,18.521,20.55908,19.48291,19.77734,20.15088z" fill="#FFFFFF" style="fill:#FFFFFF;stroke:none" stroke="none"/></g></g></svg>